<svg xmlns="http://www.w3.org/2000/svg" viewBox="0 0 542.58 49.07"><defs><style>.cls-1{fill:#fff;stroke:#999;}.cls-1,.cls-2,.cls-3{stroke-miterlimit:10;stroke-width:2px;}.cls-2{fill:#13007c;stroke:#13007c;}.cls-3{fill:#fd1a16;stroke:#fd1a16;}</style></defs><title>techывпцвsputnik</title><g id="Слой_2" data-name="Слой 2"><g id="Слой_1-2" data-name="Слой 1"><path class="cls-1" d="M42.75,10,37,15.69Q31.16,9.26,23.84,9.26a13.88,13.88,0,0,0-10.41,4.39A15,15,0,0,0,9.2,24.48a16.54,16.54,0,0,0,1.88,8,13.82,13.82,0,0,0,5.29,5.46,15,15,0,0,0,7.62,2,15.07,15.07,0,0,0,6.52-1.39A23.38,23.38,0,0,0,37,33.44l5.56,6a30.56,30.56,0,0,1-9,6.72,23.81,23.81,0,0,1-9.7,1.87q-10.05,0-16.45-6.62T1,24.46A23.89,23.89,0,0,1,3.92,12.55a22,22,0,0,1,8.34-8.38A22.91,22.91,0,0,1,24,1,23.72,23.72,0,0,1,34.24,3.34,24.71,24.71,0,0,1,42.75,10Z"/><path class="cls-1" d="M49.18,1.7h31V47H71.88V9.76H57.5V47H49.18Z"/><path class="cls-1" d="M101.35,36.56,86,1.7H95.3l10.15,25.23L113.77,1.7h8.43L110.73,34.06q-3,8.31-6.44,11.12A11.57,11.57,0,0,1,96.89,48Q90.5,48,85.1,41.41l5.39-5.69c2.15,2.62,4.27,3.94,6.37,3.94a3.58,3.58,0,0,0,2.31-.72A13.72,13.72,0,0,0,101.35,36.56Z"/><path class="cls-1" d="M122.79,1.7h23.82v8.49h-7.85V47h-8.32V10.19h-7.65Z"/><path class="cls-1" d="M151.49,1.7h8.32V18.77h14.38V1.7h8.3V47h-8.3V27.11H159.81V47h-8.32Z"/><path class="cls-1" d="M223,1.7V47h-8.21V18.62L198.71,47h-7.13V1.7h8.2V31L216.07,1.7Z"/><path class="cls-1" d="M232.17,1.7h8.29V17.3l11.7-15.6H262L247,21.89,263.47,47h-9.72L240.46,26.84V47h-8.29Z"/><path class="cls-2" d="M288.66,1.7h8l10,31.56L316.73,1.7h8L331.94,47H324l-4.62-28.58L310.24,47H303l-9.08-28.58L289.2,47h-8Z"/><path class="cls-2" d="M369,1.7V47h-8.21V18.62L344.68,47h-7.13V1.7h8.2V31L362,1.7Z"/><path class="cls-2" d="M377.87,1.7h8.7c4.71,0,8.1.45,10.18,1.37a10.44,10.44,0,0,1,4.92,4.43,14.2,14.2,0,0,1,1.8,7.33,12.78,12.78,0,0,1-2.35,7.88,12.23,12.23,0,0,1-6.41,4.36c-1.58.48-4.46.71-8.64.71V47h-8.2Zm8.2,17.68h2.61a13.45,13.45,0,0,0,4.28-.46,3.85,3.85,0,0,0,1.89-1.53,4.61,4.61,0,0,0,.69-2.57A4.18,4.18,0,0,0,393.6,11c-.94-.6-2.67-.9-5.21-.9h-2.32Z"/><path class="cls-2" d="M423.75,1.7h8.32L448.64,47h-8.52l-3.37-9.32H419.16L415.66,47h-8.53Zm4.21,12-5.78,15.54h11.53Z"/><path class="cls-3" d="M457.57,38.18a4.38,4.38,0,0,1,3.26,1.4,5,5,0,0,1,0,6.81,4.44,4.44,0,0,1-6.51,0,5,5,0,0,1,0-6.81A4.36,4.36,0,0,1,457.57,38.18Z"/><path class="cls-3" d="M469.94,1.7h8.71c4.7,0,8.1.45,10.18,1.37a10.44,10.44,0,0,1,4.92,4.43,14.2,14.2,0,0,1,1.8,7.33,12.78,12.78,0,0,1-2.36,7.88,12.17,12.17,0,0,1-6.4,4.36c-1.58.48-4.46.71-8.64.71V47h-8.21Zm8.21,17.68h2.6a13.41,13.41,0,0,0,4.28-.46,3.85,3.85,0,0,0,1.89-1.53,4.61,4.61,0,0,0,.69-2.57A4.17,4.17,0,0,0,485.68,11q-1.41-.9-5.22-.9h-2.31Z"/><path class="cls-3" d="M524.24,1.7V7.54h1.82q15.53,0,15.52,13.44a15.52,15.52,0,0,1-1.21,6.48,11.1,11.1,0,0,1-3.58,4.4,12.49,12.49,0,0,1-4.86,2.27,39.78,39.78,0,0,1-7.69.54V47H516V34.67a29,29,0,0,1-8.89-1.14,10.91,10.91,0,0,1-5.7-4.32,13.54,13.54,0,0,1-2.23-8A15.11,15.11,0,0,1,501,13.6,10.84,10.84,0,0,1,506,9q3.27-1.49,10-1.48V1.7ZM516,15.48h-1.91c-2.87,0-4.78.48-5.74,1.46a5.85,5.85,0,0,0-1.43,4.26q0,3.29,1.74,4.55A8.68,8.68,0,0,0,513.75,27H516Zm8.26,0V27h2.7q4.15,0,5.5-1.63a6.42,6.42,0,0,0,1.35-4.24A5.78,5.78,0,0,0,532.37,17q-1.43-1.48-5.73-1.49Z"/></g></g></svg>